<svg width="25" height="26" viewBox="0 0 25 26" fill="none" xmlns="http://www.w3.org/2000/svg">
<path d="M19.4896 9.05214C19.3928 8.95451 19.2775 8.87701 19.1506 8.82413C19.0237 8.77125 18.8875 8.74402 18.75 8.74402C18.6125 8.74402 18.4763 8.77125 18.3494 8.82413C18.2225 8.87701 18.1073 8.95451 18.0104 9.05214L13.2396 13.823C13.1428 13.9206 13.0275 13.9981 12.9006 14.051C12.7737 14.1039 12.6375 14.1311 12.5 14.1311C12.3625 14.1311 12.2263 14.1039 12.0994 14.051C11.9725 13.9981 11.8573 13.9206 11.7604 13.823L6.98959 9.05214C6.89276 8.95451 6.77755 8.87701 6.65061 8.82413C6.52368 8.77125 6.38752 8.74402 6.25001 8.74402C6.1125 8.74402 5.97635 8.77125 5.84941 8.82413C5.72247 8.87701 5.60726 8.95451 5.51043 9.05214C5.31642 9.24731 5.20752 9.51132 5.20752 9.78652C5.20752 10.0617 5.31642 10.3257 5.51043 10.5209L10.2917 15.3021C10.8776 15.8874 11.6719 16.2161 12.5 16.2161C13.3281 16.2161 14.1224 15.8874 14.7083 15.3021L19.4896 10.5209C19.6836 10.3257 19.7925 10.0617 19.7925 9.78652C19.7925 9.51132 19.6836 9.24731 19.4896 9.05214Z" fill="#374258"/>
</svg>
