<svg width="20" height="20" viewBox="0 0 20 20" fill="none" xmlns="http://www.w3.org/2000/svg">
<g clip-path="url(#clip0_1791_3560)">
<path d="M9.25578 12.0392C9.30417 12.138 9.37164 12.2262 9.45429 12.2987C9.53693 12.3713 9.63313 12.4268 9.73732 12.462C9.84151 12.4972 9.95165 12.5114 10.0614 12.5039C10.1711 12.4963 10.2782 12.4671 10.3766 12.4179C10.475 12.3688 10.5627 12.3006 10.6346 12.2174C10.7065 12.1342 10.7612 12.0376 10.7956 11.9331C10.83 11.8287 10.8434 11.7184 10.835 11.6088C10.8266 11.4991 10.7965 11.3922 10.7466 11.2942L6.16328 2.12752C6.09408 1.98907 5.98769 1.87263 5.85603 1.79124C5.72437 1.70986 5.57264 1.66675 5.41786 1.66675C5.26308 1.66675 5.11135 1.70986 4.97969 1.79124C4.84803 1.87263 4.74164 1.98907 4.67244 2.12752L0.0891112 11.2942C0.0391827 11.3922 0.00914595 11.4991 0.000732822 11.6088C-0.0076803 11.7184 0.0056966 11.8287 0.0400923 11.9331C0.0744879 12.0376 0.129222 12.1342 0.201139 12.2174C0.273055 12.3006 0.360732 12.3688 0.459113 12.4179C0.557495 12.4671 0.664635 12.4963 0.774356 12.5039C0.884077 12.5114 0.99421 12.4972 1.0984 12.462C1.2026 12.4268 1.29879 12.3713 1.38144 12.2987C1.46408 12.2262 1.53155 12.138 1.57994 12.0392L3.01578 9.16669H7.81911L9.25578 12.0392ZM3.84911 7.50003L5.41661 4.36336L6.98578 7.50003H3.84911Z" fill="#374258"/>
<path d="M19.7559 9.41086C19.5996 9.25463 19.3877 9.16687 19.1667 9.16687C18.9457 9.16687 18.7338 9.25463 18.5775 9.41086L10.8334 17.155L7.25586 13.5775C7.17899 13.4979 7.08703 13.4344 6.98536 13.3908C6.88369 13.3471 6.77434 13.3241 6.66369 13.3231C6.55305 13.3222 6.44331 13.3433 6.3409 13.3852C6.23848 13.4271 6.14544 13.489 6.0672 13.5672C5.98895 13.6454 5.92708 13.7385 5.88518 13.8409C5.84327 13.9433 5.82219 14.053 5.82315 14.1637C5.82411 14.2743 5.8471 14.3837 5.89078 14.4854C5.93445 14.587 5.99794 14.679 6.07753 14.7559L10.2442 18.9225C10.4005 19.0788 10.6124 19.1665 10.8334 19.1665C11.0543 19.1665 11.2663 19.0788 11.4225 18.9225L19.7559 10.5892C19.9121 10.4329 19.9998 10.221 19.9998 10C19.9998 9.77906 19.9121 9.56713 19.7559 9.41086Z" fill="#374258"/>
</g>
<defs>
<clipPath id="clip0_1791_3560">
<rect width="20" height="20" fill="white"/>
</clipPath>
</defs>
</svg>
