<svg width="42" height="42" viewBox="0 0 42 42" fill="none" xmlns="http://www.w3.org/2000/svg">
<rect x="0.5" y="0.5" width="41" height="41" rx="5.5" fill="white"/>
<rect x="0.5" y="0.5" width="41" height="41" rx="5.5" stroke="#D1DAE4"/>
<g clip-path="url(#clip0_1243_503)">
<path d="M11.7333 22.7417L14.9583 26C15.0358 26.0781 15.128 26.1401 15.2295 26.1824C15.3311 26.2248 15.44 26.2465 15.55 26.2465C15.66 26.2465 15.7689 26.2248 15.8705 26.1824C15.972 26.1401 16.0642 26.0781 16.1417 26C16.2198 25.9226 16.2818 25.8304 16.3241 25.7289C16.3664 25.6273 16.3882 25.5184 16.3882 25.4084C16.3882 25.2984 16.3664 25.1894 16.3241 25.0879C16.2818 24.9863 16.2198 24.8942 16.1417 24.8167L13.175 21.8334H30.1667C30.3877 21.8334 30.5996 21.7456 30.7559 21.5893C30.9122 21.433 31 21.2211 31 21C31 20.779 30.9122 20.5671 30.7559 20.4108C30.5996 20.2545 30.3877 20.1667 30.1667 20.1667H13.125L16.1417 17.15C16.2894 16.9951 16.3718 16.7892 16.3718 16.575C16.3718 16.3609 16.2894 16.155 16.1417 16C16.0642 15.9219 15.972 15.8599 15.8705 15.8176C15.7689 15.7753 15.66 15.7535 15.55 15.7535C15.44 15.7535 15.3311 15.7753 15.2295 15.8176C15.128 15.8599 15.0358 15.9219 14.9583 16L11.7333 19.2084C11.2652 19.6771 11.0022 20.3125 11.0022 20.975C11.0022 21.6375 11.2652 22.273 11.7333 22.7417Z" fill="#374258"/>
</g>
<defs>
<clipPath id="clip0_1243_503">
<rect width="20" height="20" fill="white" transform="translate(11 11)"/>
</clipPath>
</defs>
</svg>
