<svg width="25" height="26" viewBox="0 0 25 26" fill="none" xmlns="http://www.w3.org/2000/svg">
<g clip-path="url(#clip0_1415_4980)">
<path d="M23.4948 14.7312L21.5156 7.61038C20.9355 5.52427 19.6747 3.69193 17.9337 2.40462C16.1927 1.11731 14.0713 0.448907 11.9067 0.505657C9.74222 0.562407 7.65877 1.34105 5.98758 2.71783C4.31638 4.0946 3.15335 5.99049 2.68335 8.10413L1.15105 14.9948C0.981798 15.7561 0.985712 16.5458 1.1625 17.3055C1.3393 18.0652 1.68445 18.7754 2.17249 19.3839C2.66053 19.9923 3.27899 20.4833 3.98221 20.8207C4.68543 21.1582 5.45545 21.3333 6.23543 21.3333H7.39585C7.63492 22.5107 8.27369 23.5692 9.20391 24.3295C10.1341 25.0898 11.2986 25.5052 12.5 25.5052C13.7014 25.5052 14.8659 25.0898 15.7961 24.3295C16.7263 23.5692 17.3651 22.5107 17.6042 21.3333H18.4771C19.28 21.3334 20.0721 21.1478 20.7914 20.791C21.5108 20.4343 22.1379 19.9161 22.6238 19.2769C23.1097 18.6377 23.4412 17.8948 23.5925 17.1063C23.7438 16.3177 23.7097 15.5049 23.4948 14.7312ZM12.5 23.4166C11.856 23.414 11.2285 23.2124 10.7035 22.8395C10.1784 22.4665 9.78135 21.9405 9.56668 21.3333H15.4333C15.2187 21.9405 14.8216 22.4665 14.2966 22.8395C13.7715 23.2124 13.144 23.414 12.5 23.4166ZM20.9646 18.0156C20.6743 18.4007 20.2983 18.7127 19.8663 18.927C19.4343 19.1413 18.9583 19.2519 18.4761 19.25H6.23543C5.7675 19.2499 5.30555 19.1447 4.8837 18.9422C4.46185 18.7397 4.09085 18.4451 3.7981 18.0801C3.50534 17.715 3.2983 17.2889 3.19226 16.8331C3.08622 16.3774 3.08389 15.9036 3.18543 15.4468L4.71668 8.55517C5.0858 6.89497 5.99929 5.4058 7.31195 4.32439C8.6246 3.24298 10.2611 2.63139 11.9612 2.58685C13.6614 2.54231 15.3276 3.06738 16.6951 4.07858C18.0626 5.08978 19.0528 6.52907 19.5083 8.16767L21.4875 15.2885C21.6183 15.7524 21.6391 16.2405 21.5483 16.7138C21.4576 17.1872 21.2577 17.6329 20.9646 18.0156Z" fill="#75819A"/>
</g>
<defs>
<clipPath id="clip0_1415_4980">
<rect width="25" height="25" fill="white" transform="translate(0 0.5)"/>
</clipPath>
</defs>
</svg>
