<svg width="20" height="20" viewBox="0 0 20 20" fill="none" xmlns="http://www.w3.org/2000/svg">
<g clip-path="url(#clip0_1446_2835)">
<path d="M10 3.33333C10.9205 3.33333 11.6667 2.58714 11.6667 1.66667C11.6667 0.746192 10.9205 0 10 0C9.07957 0 8.33337 0.746192 8.33337 1.66667C8.33337 2.58714 9.07957 3.33333 10 3.33333Z" fill="#374258"/>
<path d="M10 11.6667C10.9205 11.6667 11.6667 10.9205 11.6667 10C11.6667 9.07954 10.9205 8.33334 10 8.33334C9.07957 8.33334 8.33337 9.07954 8.33337 10C8.33337 10.9205 9.07957 11.6667 10 11.6667Z" fill="#374258"/>
<path d="M10 20C10.9205 20 11.6667 19.2538 11.6667 18.3333C11.6667 17.4128 10.9205 16.6667 10 16.6667C9.07957 16.6667 8.33337 17.4128 8.33337 18.3333C8.33337 19.2538 9.07957 20 10 20Z" fill="#374258"/>
</g>
<defs>
<clipPath id="clip0_1446_2835">
<rect width="20" height="20" fill="white"/>
</clipPath>
</defs>
</svg>
