<svg width="20" height="20" viewBox="0 0 20 20" fill="none" xmlns="http://www.w3.org/2000/svg">
<g clip-path="url(#clip0_1181_503)">
<path d="M20 2.49998V14.2C20 16.05 18.7575 17.6975 16.9783 18.2066L11.3733 19.8075C10.475 20.0641 9.525 20.0641 8.62667 19.8075L3.02167 18.2066C1.2425 17.6983 0 16.0508 0 14.2V3.33332C0.005 2.24332 1.66167 2.24415 1.66667 3.33332V14.2C1.66667 15.3108 2.4125 16.2992 3.48 16.6041L9.085 18.205C9.68417 18.3758 10.3167 18.3758 10.9167 18.205L16.5208 16.6041C17.5883 16.2992 18.3342 15.3108 18.3342 14.2V2.49998C18.3392 1.40998 19.995 1.41082 20 2.49998ZM3.33333 12.4475V3.33332C3.33333 2.27748 3.81667 1.30748 4.65917 0.672483C5.50167 0.0366494 6.56667 -0.161684 7.5825 0.128316L9.02083 0.539149C9.3925 0.644983 9.725 0.834149 10.0008 1.08165C10.2767 0.834149 10.6092 0.644983 10.9808 0.539149L12.4183 0.128316C14.4692 -0.520017 16.7275 1.18498 16.6675 3.33332V12.4475C16.6675 13.9275 15.6733 15.2458 14.25 15.6525L11.3742 16.4741C10.475 16.7308 9.525 16.7308 8.6275 16.4741L5.75167 15.6525C4.32833 15.2458 3.33333 13.9275 3.33333 12.4475ZM10.8333 14.8941C10.8608 14.8866 13.7908 14.05 13.7908 14.05C14.5025 13.8467 15 13.1875 15 12.4475V3.33332C15 2.80582 14.7583 2.32082 14.3375 2.00248C13.9142 1.68248 13.3783 1.58665 12.8758 1.72998L11.4383 2.14082C11.0825 2.24248 10.8333 2.57165 10.8333 2.94165V14.8941ZM5 12.4475C5 13.1875 5.4975 13.8467 6.20917 14.05C6.20917 14.05 9.13917 14.8866 9.16667 14.8941V2.94248C9.16667 2.57248 8.91833 2.24332 8.5625 2.14165L7.12417 1.73082C6.62167 1.58665 6.085 1.68332 5.6625 2.00332C5.24167 2.32082 5 2.80582 5 3.33415V12.4475Z" fill="#F1F5F8"/>
</g>
<defs>
<clipPath id="clip0_1181_503">
<rect width="20" height="20" fill="white"/>
</clipPath>
</defs>
</svg>
