<svg width="21" height="20" viewBox="0 0 21 20" fill="none" xmlns="http://www.w3.org/2000/svg">
<path d="M19.5442 0.956628C18.9776 0.390959 18.2098 0.0732422 17.4092 0.0732422C16.6086 0.0732422 15.8407 0.390959 15.2742 0.956628L1.72085 14.51C1.33272 14.8959 1.02498 15.355 0.815428 15.8606C0.605874 16.3663 0.498668 16.9084 0.500012 17.4558V19.1666C0.500012 19.3876 0.58781 19.5996 0.74409 19.7559C0.900371 19.9122 1.11233 20 1.33335 20H3.04418C3.59148 20.0015 4.13365 19.8945 4.63931 19.6851C5.14497 19.4756 5.60406 19.168 5.99001 18.78L19.5442 5.22579C20.1096 4.65929 20.4272 3.8916 20.4272 3.09121C20.4272 2.29082 20.1096 1.52313 19.5442 0.956628ZM4.81168 17.6016C4.34168 18.0685 3.70665 18.3314 3.04418 18.3333H2.16668V17.4558C2.16584 17.1274 2.23014 16.8021 2.35588 16.4987C2.48161 16.1953 2.66628 15.9198 2.89918 15.6883L13.185 5.40246L15.1017 7.31913L4.81168 17.6016ZM18.365 4.04746L16.2767 6.13663L14.36 4.22413L16.4492 2.13496C16.575 2.00938 16.7244 1.90983 16.8887 1.84197C17.053 1.77411 17.2291 1.73929 17.4069 1.73948C17.5847 1.73967 17.7607 1.77488 17.9249 1.8431C18.0891 1.91131 18.2382 2.01119 18.3638 2.13704C18.4893 2.26289 18.5889 2.41225 18.6568 2.57657C18.7246 2.7409 18.7594 2.91698 18.7592 3.09477C18.7591 3.27255 18.7238 3.44856 18.6556 3.61274C18.5874 3.77692 18.4875 3.92605 18.3617 4.05163L18.365 4.04746Z" fill="#374258"/>
</svg>
