<svg width="30" height="30" viewBox="0 0 30 30" fill="none" xmlns="http://www.w3.org/2000/svg">
<g clip-path="url(#clip0_1398_1855)">
<path d="M15 11.25C22.4175 11.055 22.4163 0.19375 15 0C7.5825 0.195 7.58375 11.0562 15 11.25ZM15 2.5C19.1075 2.57375 19.1063 8.6775 15 8.75C10.8938 8.67625 10.8938 2.5725 15 2.5ZM27.755 13.9525C26.3263 12.7612 24.455 12.2688 22.6313 12.6013L17.855 13.47C16.7138 13.6775 15.7213 14.2625 15 15.0812C14.2775 14.2625 13.2863 13.6775 12.1438 13.47L7.3675 12.6013C5.54125 12.2713 3.6725 12.7612 2.245 13.9525C0.8175 15.1437 0 16.8925 0 18.7513V22.2425C0 25.2638 2.15875 27.85 5.1325 28.3912L12.9875 29.82C14.3225 30.0625 15.6763 30.0625 17.0113 29.82L24.8675 28.3912C27.8413 27.85 29.9988 25.2638 29.9988 22.2425V18.7513C29.9988 16.8925 29.1813 15.1438 27.7538 13.9538L27.755 13.9525ZM13.75 27.4113C13.645 27.3963 13.54 27.3787 13.435 27.36L5.58 25.9313C3.795 25.6063 2.5 24.055 2.5 22.2412V18.75C2.5 17.635 2.99125 16.5863 3.8475 15.8712C4.70375 15.155 5.835 14.8612 6.92125 15.0612L11.6975 15.93C12.8875 16.1462 13.75 17.18 13.75 18.39V27.4113ZM27.5 22.2425C27.5 24.0563 26.205 25.6075 24.4213 25.9325L16.565 27.3612C16.46 27.38 16.355 27.3975 16.25 27.4125V18.3913C16.25 17.1825 17.1125 16.1475 18.3025 15.9312L23.0788 15.0625C24.1725 14.8625 25.2963 15.1587 26.1538 15.8725C27.01 16.5875 27.5 17.6362 27.5 18.7513V22.2425Z" fill="#B2BBCE"/>
</g>
<defs>
<clipPath id="clip0_1398_1855">
<rect width="30" height="30" fill="white"/>
</clipPath>
</defs>
</svg>
