<svg width="20" height="20" viewBox="0 0 20 20" fill="none" xmlns="http://www.w3.org/2000/svg">
<g clip-path="url(#clip0_1181_496)">
<path d="M14.1667 0H5.83335C3.53335 0 1.66669 1.86667 1.66669 4.16667V16.6667C1.66669 18.5083 3.15835 20 5.00002 20H14.1667C16.4667 20 18.3334 18.1333 18.3334 15.8333V4.16667C18.3334 1.86667 16.4667 0 14.1667 0ZM16.6667 4.16667V13.3333H6.66669V1.66667H14.1667C15.5417 1.66667 16.6667 2.79167 16.6667 4.16667ZM5.00002 1.81667V13.3333C4.39169 13.3333 3.82502 13.5083 3.33335 13.8V4.16667C3.33335 3.08333 4.03335 2.16667 5.00002 1.81667ZM14.1667 18.3333H5.00002C4.08335 18.3333 3.33335 17.5833 3.33335 16.6667C3.33335 15.75 4.08335 15 5.00002 15H16.6667V15.8333C16.6667 17.2083 15.5417 18.3333 14.1667 18.3333ZM8.99169 11.6667C9.34169 11.6667 9.65835 11.4417 9.77502 11.1167L10.175 10H13.1667L13.5667 11.1167C13.6834 11.45 14 11.6667 14.35 11.6667C14.925 11.6667 15.325 11.1 15.1334 10.55L12.85 4.14167C12.6667 3.64167 12.2084 3.31667 11.675 3.31667C11.1417 3.31667 10.6834 3.64167 10.5 4.15L8.21669 10.5583C8.02502 11.1 8.42502 11.675 9.00002 11.675L8.99169 11.6667ZM12.575 8.33333H10.775L11.675 5.80833L12.575 8.33333Z" fill="#F1F5F8"/>
</g>
<defs>
<clipPath id="clip0_1181_496">
<rect width="20" height="20" fill="white"/>
</clipPath>
</defs>
</svg>
