<svg width="20" height="20" viewBox="0 0 20 20" fill="none" xmlns="http://www.w3.org/2000/svg">
<g clip-path="url(#clip0_1351_757)">
<path d="M18.3334 0H14.1667C13.2476 0 12.5001 0.7475 12.5001 1.66667V4.16667C12.5001 5.08583 13.2476 5.83333 14.1667 5.83333H15.4167V8.33333H11.2501L10.0001 6.66667C9.21758 5.62333 7.97091 5 6.66675 5H5.00008C3.16175 5 1.66675 6.495 1.66675 8.33333V10.8333C1.66675 12.0617 2.34175 13.125 3.33341 13.7033V19.1667C3.33341 19.6267 3.70591 20 4.16675 20C4.62758 20 5.00008 19.6267 5.00008 19.1667V14.1667H6.66675V19.1667C6.66675 19.6267 7.03925 20 7.50008 20C7.96092 20 8.33342 19.6267 8.33342 19.1667V10C8.33342 9.54 7.96092 9.16667 7.50008 9.16667C7.03925 9.16667 6.66675 9.54 6.66675 10V12.5H5.00008C4.08091 12.5 3.33341 11.7525 3.33341 10.8333V8.33333C3.33341 7.41417 4.08091 6.66667 5.00008 6.66667H6.66675C7.44925 6.66667 8.19675 7.04083 8.66675 7.66667L10.1667 9.66667C10.3234 9.87583 10.5709 10 10.8334 10H15.4167C16.3359 10 17.0834 9.2525 17.0834 8.33333V5.83333H18.3334C19.2526 5.83333 20.0001 5.08583 20.0001 4.16667V1.66667C20.0001 0.7475 19.2526 0 18.3334 0ZM14.1667 4.16667V1.66667H18.3334V4.16667H14.1667ZM3.75008 2.08333C3.75008 0.9325 4.68258 0 5.83342 0C6.98425 0 7.91675 0.9325 7.91675 2.08333C7.91675 3.23417 6.98425 4.16667 5.83342 4.16667C4.68258 4.16667 3.75008 3.23417 3.75008 2.08333Z" fill="white"/>
</g>
<defs>
<clipPath id="clip0_1351_757">
<rect width="20" height="20" fill="white"/>
</clipPath>
</defs>
</svg>
