<svg width="20" height="20" viewBox="0 0 20 20" fill="none" xmlns="http://www.w3.org/2000/svg">
<g clip-path="url(#clip0_1181_484)">
<path d="M18.3334 0H14.1667C13.2475 0 12.5 0.7475 12.5 1.66667V4.16667C12.5 5.08583 13.2475 5.83333 14.1667 5.83333H15.4167V8.33333H11.25L10 6.66667C9.21752 5.62333 7.97085 5 6.66669 5H5.00002C3.16169 5 1.66669 6.495 1.66669 8.33333V10.8333C1.66669 12.0617 2.34169 13.125 3.33335 13.7033V19.1667C3.33335 19.6267 3.70585 20 4.16669 20C4.62752 20 5.00002 19.6267 5.00002 19.1667V14.1667H6.66669V19.1667C6.66669 19.6267 7.03919 20 7.50002 20C7.96085 20 8.33335 19.6267 8.33335 19.1667V10C8.33335 9.54 7.96085 9.16667 7.50002 9.16667C7.03919 9.16667 6.66669 9.54 6.66669 10V12.5H5.00002C4.08085 12.5 3.33335 11.7525 3.33335 10.8333V8.33333C3.33335 7.41417 4.08085 6.66667 5.00002 6.66667H6.66669C7.44919 6.66667 8.19669 7.04083 8.66669 7.66667L10.1667 9.66667C10.3234 9.87583 10.5709 10 10.8334 10H15.4167C16.3359 10 17.0834 9.2525 17.0834 8.33333V5.83333H18.3334C19.2525 5.83333 20 5.08583 20 4.16667V1.66667C20 0.7475 19.2525 0 18.3334 0ZM14.1667 4.16667V1.66667H18.3334V4.16667H14.1667ZM3.75002 2.08333C3.75002 0.9325 4.68252 0 5.83335 0C6.98419 0 7.91669 0.9325 7.91669 2.08333C7.91669 3.23417 6.98419 4.16667 5.83335 4.16667C4.68252 4.16667 3.75002 3.23417 3.75002 2.08333Z" fill="#F1F5F8"/>
</g>
<defs>
<clipPath id="clip0_1181_484">
<rect width="20" height="20" fill="white"/>
</clipPath>
</defs>
</svg>
