<svg width="30" height="30" viewBox="0 0 30 30" fill="none" xmlns="http://www.w3.org/2000/svg">
<path d="M27.5 0H21.25C19.8713 0 18.75 1.12125 18.75 2.5V6.25C18.75 7.62875 19.8713 8.75 21.25 8.75H23.125V12.5H16.875L15 10C13.8263 8.435 11.9563 7.5 10 7.5H7.5C4.7425 7.5 2.5 9.7425 2.5 12.5V16.25C2.5 18.0925 3.5125 19.6875 5 20.555V28.75C5 29.44 5.55875 30 6.25 30C6.94125 30 7.5 29.44 7.5 28.75V21.25H10V28.75C10 29.44 10.5588 30 11.25 30C11.9412 30 12.5 29.44 12.5 28.75V15C12.5 14.31 11.9412 13.75 11.25 13.75C10.5588 13.75 10 14.31 10 15V18.75H7.5C6.12125 18.75 5 17.6287 5 16.25V12.5C5 11.1213 6.12125 10 7.5 10H10C11.1737 10 12.295 10.5612 13 11.5L15.25 14.5C15.485 14.8138 15.8562 15 16.25 15H23.125C24.5037 15 25.625 13.8787 25.625 12.5V8.75H27.5C28.8787 8.75 30 7.62875 30 6.25V2.5C30 1.12125 28.8787 0 27.5 0ZM21.25 6.25V2.5H27.5V6.25H21.25ZM5.625 3.125C5.625 1.39875 7.02375 0 8.75 0C10.4763 0 11.875 1.39875 11.875 3.125C11.875 4.85125 10.4763 6.25 8.75 6.25C7.02375 6.25 5.625 4.85125 5.625 3.125Z" fill="#B2BBCE"/>
</svg>
